<svg width="24" height="24" viewBox="0 0 24 24" fill="none" xmlns="http://www.w3.org/2000/svg">
<g id="Icons">
<path id="Vector" d="M19.8367 8.43676L10.2367 18.0368C10.1531 18.1207 10.0538 18.1872 9.94438 18.2327C9.83498 18.2781 9.71769 18.3015 9.59924 18.3015C9.48079 18.3015 9.3635 18.2781 9.25411 18.2327C9.14471 18.1872 9.04535 18.1207 8.96174 18.0368L4.76174 13.8368C4.67802 13.753 4.61162 13.6537 4.56631 13.5443C4.521 13.4349 4.49768 13.3177 4.49768 13.1993C4.49768 13.0809 4.521 12.9636 4.56631 12.8542C4.61162 12.7449 4.67802 12.6455 4.76174 12.5618C4.84546 12.478 4.94485 12.4116 5.05423 12.3663C5.16361 12.321 5.28085 12.2977 5.39924 12.2977C5.51764 12.2977 5.63487 12.321 5.74425 12.3663C5.85364 12.4116 5.95302 12.478 6.03674 12.5618L9.59999 16.125L18.5632 7.16326C18.7323 6.99419 18.9616 6.8992 19.2007 6.8992C19.4398 6.8992 19.6692 6.99419 19.8382 7.16326C20.0073 7.33234 20.1023 7.56165 20.1023 7.80076C20.1023 8.03987 20.0073 8.26919 19.8382 8.43826L19.8367 8.43676Z" fill="black"/>
</g>
</svg>
