<svg width="24" height="24" viewBox="0 0 24 24" fill="none" xmlns="http://www.w3.org/2000/svg">
<g id="Icons">
<path id="Vector" d="M19.8368 8.43676L10.2367 18.0368C10.1531 18.1207 10.0538 18.1872 9.94439 18.2327C9.83499 18.2781 9.7177 18.3015 9.59925 18.3015C9.4808 18.3015 9.36351 18.2781 9.25411 18.2327C9.14472 18.1872 9.04536 18.1207 8.96175 18.0368L4.76175 13.8368C4.67803 13.753 4.61162 13.6537 4.56632 13.5443C4.52101 13.4349 4.49769 13.3177 4.49769 13.1993C4.49769 13.0809 4.52101 12.9636 4.56632 12.8542C4.61162 12.7449 4.67803 12.6455 4.76175 12.5618C4.84547 12.478 4.94485 12.4116 5.05424 12.3663C5.16362 12.321 5.28085 12.2977 5.39925 12.2977C5.51764 12.2977 5.63488 12.321 5.74426 12.3663C5.85364 12.4116 5.95303 12.478 6.03675 12.5618L9.6 16.125L18.5632 7.16326C18.7323 6.99419 18.9616 6.8992 19.2007 6.8992C19.4399 6.8992 19.6692 6.99419 19.8382 7.16326C20.0073 7.33234 20.1023 7.56165 20.1023 7.80076C20.1023 8.03987 20.0073 8.26919 19.8382 8.43826L19.8368 8.43676Z" fill="white"/>
</g>
</svg>
